<svg xmlns="http://www.w3.org/2000/svg" xmlns:v="https://svgstorm.com"
viewBox = "0 0 500 500"
width="500"
height="500">
<g fill="None" fill-opacity="0.0" stroke="#F2F3F3" stroke-opacity="1.00" stroke-width="0.3"><path d="
M 0.00 500.00 
L 500.00 500.00
L 500.00 0.00
L 0.00 0.00
L 0.00 500.00
M 232.00 204.00 
C 228.25 209.62 213.82 202.87 206.00 205.00 C 198.18 207.13 191.55 209.99 184.92 214.92 C 178.30 219.86 174.74 226.05 171.08 233.08 C 167.41 240.11 165.59 251.65 167.33 259.67 C 169.07 267.69 171.33 275.31 176.30 281.70 C 181.28 288.08 187.22 292.52 194.03 295.97 C 200.83 299.42 211.90 302.35 220.00 301.00 C 228.10 299.65 235.06 296.43 241.75 291.75 C 248.44 287.08 252.95 282.06 256.78 274.78 C 260.60 267.49 262.41 258.04 262.00 249.00 C 261.59 239.96 256.85 232.54 255.00 224.00
C 264.06 218.25 270.65 218.46 273.77 228.23 C 276.89 238.00 279.16 247.09 278.00 257.00 C 276.84 266.91 275.81 275.43 271.22 283.22 C 266.63 291.02 262.49 295.08 256.25 301.25 C 250.01 307.41 243.31 310.26 235.32 313.32 C 227.34 316.39 214.94 318.35 206.00 317.00 C 197.06 315.65 189.47 312.12 181.77 308.23 C 174.07 304.34 170.36 298.48 164.70 292.30 C 159.03 286.12 155.01 278.14 153.00 270.00
C 147.44 254.94 148.40 235.19 155.99 220.99 C 163.58 206.80 174.32 198.18 188.68 192.68 C 203.04 187.18 225.84 182.09 238.00 193.00
C 231.84 193.19 235.48 200.83 232.00 204.00
M 265.00 315.00 
C 265.82 309.72 266.62 304.42 267.00 299.00
C 289.51 305.61 313.89 296.80 325.75 276.75 C 337.62 256.71 332.29 229.49 313.75 215.25 C 295.21 201.00 269.23 201.14 251.75 217.75 C 234.28 234.37 233.75 261.43 244.00 282.00
C 235.67 288.72 229.20 288.61 226.02 278.98 C 222.85 269.34 219.86 261.11 221.00 251.00 C 222.14 240.89 222.91 231.31 226.93 222.93 C 230.94 214.54 235.62 211.28 241.75 204.75 C 247.88 198.22 255.17 195.50 263.08 192.08 C 270.98 188.65 284.07 188.29 293.00 189.00 C 301.93 189.71 310.95 193.28 317.75 198.25 C 324.56 203.22 330.66 206.33 335.75 213.25 C 340.84 220.17 342.81 227.97 345.93 236.07 C 349.04 244.18 348.82 258.35 347.00 267.00 C 345.19 275.65 341.49 282.81 337.08 290.08 C 332.67 297.36 326.92 302.17 319.75 306.75 C 312.59 311.34 305.41 314.76 296.33 316.33 C 287.25 317.90 274.09 317.02 265.00 315.00 Z"/>
</g>
<g fill="None" fill-opacity="0.0" stroke="#CCF5F6" stroke-opacity="1.00" stroke-width="0.3"><path d="
M 153.00 270.00 
C 141.32 223.56 184.71 176.21 232.00 191.00
C 232.00 195.33 232.00 199.67 232.00 204.00
C 235.48 200.83 231.84 193.19 238.00 193.00
C 225.84 182.09 203.04 187.18 188.68 192.68 C 174.32 198.18 163.58 206.80 155.99 220.99 C 148.40 235.19 147.44 254.94 153.00 270.00 Z"/>
</g>
<g fill="None" fill-opacity="0.0" stroke="#67E0E4" stroke-opacity="1.00" stroke-width="0.3"><path d="
M 153.00 270.00 
C 155.01 278.14 159.03 286.12 164.70 292.30 C 170.36 298.48 174.07 304.34 181.77 308.23 C 189.47 312.12 197.06 315.65 206.00 317.00 C 214.94 318.35 227.34 316.39 235.32 313.32 C 243.31 310.26 250.01 307.41 256.25 301.25 C 262.49 295.08 266.63 291.02 271.22 283.22 C 275.81 275.43 276.84 266.91 278.00 257.00 C 279.16 247.09 276.89 238.00 273.77 228.23 C 270.65 218.46 264.06 218.25 255.00 224.00
C 256.85 232.54 261.59 239.96 262.00 249.00 C 262.41 258.04 260.60 267.49 256.78 274.78 C 252.95 282.06 248.44 287.08 241.75 291.75 C 235.06 296.43 228.10 299.65 220.00 301.00 C 211.90 302.35 200.83 299.42 194.03 295.97 C 187.22 292.52 181.28 288.08 176.30 281.70 C 171.33 275.31 169.07 267.69 167.33 259.67 C 165.59 251.65 167.41 240.11 171.08 233.08 C 174.74 226.05 178.30 219.86 184.92 214.92 C 191.55 209.99 198.18 207.13 206.00 205.00 C 213.82 202.87 228.25 209.62 232.00 204.00
C 232.00 199.67 232.00 195.33 232.00 191.00
C 184.71 176.21 141.32 223.56 153.00 270.00 Z"/>
</g>
<g fill="None" fill-opacity="0.0" stroke="#68E0E4" stroke-opacity="1.00" stroke-width="0.3"><path d="
M 265.00 315.00 
C 274.09 317.02 287.25 317.90 296.33 316.33 C 305.41 314.76 312.59 311.34 319.75 306.75 C 326.92 302.17 332.67 297.36 337.08 290.08 C 341.49 282.81 345.19 275.65 347.00 267.00 C 348.82 258.35 349.04 244.18 345.93 236.07 C 342.81 227.97 340.84 220.17 335.75 213.25 C 330.66 206.33 324.56 203.22 317.75 198.25 C 310.95 193.28 301.93 189.71 293.00 189.00 C 284.07 188.29 270.98 188.65 263.08 192.08 C 255.17 195.50 247.88 198.22 241.75 204.75 C 235.62 211.28 230.94 214.54 226.93 222.93 C 222.91 231.31 222.14 240.89 221.00 251.00 C 219.86 261.11 222.85 269.34 226.02 278.98 C 229.20 288.61 235.67 288.72 244.00 282.00
C 233.75 261.43 234.28 234.37 251.75 217.75 C 269.23 201.14 295.21 201.00 313.75 215.25 C 332.29 229.49 337.62 256.71 325.75 276.75 C 313.89 296.80 289.51 305.61 267.00 299.00
C 266.62 304.42 265.82 309.72 265.00 315.00 Z"/>
</g>
<g fill="#F2F3F3" fill-opacity="1.00" stroke="None">
<path d="
M 0.00 500.00 
L 500.00 500.00
L 500.00 0.00
L 0.00 0.00
L 0.00 500.00
M 232.00 204.00 
C 228.25 209.62 213.82 202.87 206.00 205.00 C 198.18 207.13 191.55 209.99 184.92 214.92 C 178.30 219.86 174.74 226.05 171.08 233.08 C 167.41 240.11 165.59 251.65 167.33 259.67 C 169.07 267.69 171.33 275.31 176.30 281.70 C 181.28 288.08 187.22 292.52 194.03 295.97 C 200.83 299.42 211.90 302.35 220.00 301.00 C 228.10 299.65 235.06 296.43 241.75 291.75 C 248.44 287.08 252.95 282.06 256.78 274.78 C 260.60 267.49 262.41 258.04 262.00 249.00 C 261.59 239.96 256.85 232.54 255.00 224.00
C 264.06 218.25 270.65 218.46 273.77 228.23 C 276.89 238.00 279.16 247.09 278.00 257.00 C 276.84 266.91 275.81 275.43 271.22 283.22 C 266.63 291.02 262.49 295.08 256.25 301.25 C 250.01 307.41 243.31 310.26 235.32 313.32 C 227.34 316.39 214.94 318.35 206.00 317.00 C 197.06 315.65 189.47 312.12 181.77 308.23 C 174.07 304.34 170.36 298.48 164.70 292.30 C 159.03 286.12 155.01 278.14 153.00 270.00
C 147.44 254.94 148.40 235.19 155.99 220.99 C 163.58 206.80 174.32 198.18 188.68 192.68 C 203.04 187.18 225.84 182.09 238.00 193.00
C 231.84 193.19 235.48 200.83 232.00 204.00
M 265.00 315.00 
C 265.82 309.72 266.62 304.42 267.00 299.00
C 289.51 305.61 313.89 296.80 325.75 276.75 C 337.62 256.71 332.29 229.49 313.75 215.25 C 295.21 201.00 269.23 201.14 251.75 217.75 C 234.28 234.37 233.75 261.43 244.00 282.00
C 235.67 288.72 229.20 288.61 226.02 278.98 C 222.85 269.34 219.86 261.11 221.00 251.00 C 222.14 240.89 222.91 231.31 226.93 222.93 C 230.94 214.54 235.62 211.28 241.75 204.75 C 247.88 198.22 255.17 195.50 263.08 192.08 C 270.98 188.65 284.07 188.29 293.00 189.00 C 301.93 189.71 310.95 193.28 317.75 198.25 C 324.56 203.22 330.66 206.33 335.75 213.25 C 340.84 220.17 342.81 227.97 345.93 236.07 C 349.04 244.18 348.82 258.35 347.00 267.00 C 345.19 275.65 341.49 282.81 337.08 290.08 C 332.67 297.36 326.92 302.17 319.75 306.75 C 312.59 311.34 305.41 314.76 296.33 316.33 C 287.25 317.90 274.09 317.02 265.00 315.00 Z"/>
</g>
<g fill="#CCF5F6" fill-opacity="1.00" stroke="None">
<path d="
M 153.00 270.00 
C 141.32 223.56 184.71 176.21 232.00 191.00
C 232.00 195.33 232.00 199.67 232.00 204.00
C 235.48 200.83 231.84 193.19 238.00 193.00
C 225.84 182.09 203.04 187.18 188.68 192.68 C 174.32 198.18 163.58 206.80 155.99 220.99 C 148.40 235.19 147.44 254.94 153.00 270.00 Z"/>
</g>
<g fill="#67E0E4" fill-opacity="1.00" stroke="None">
<path d="
M 153.00 270.00 
C 155.01 278.14 159.03 286.12 164.70 292.30 C 170.36 298.48 174.07 304.34 181.77 308.23 C 189.47 312.12 197.06 315.65 206.00 317.00 C 214.94 318.35 227.34 316.39 235.32 313.32 C 243.31 310.26 250.01 307.41 256.25 301.25 C 262.49 295.08 266.63 291.02 271.22 283.22 C 275.81 275.43 276.84 266.91 278.00 257.00 C 279.16 247.09 276.89 238.00 273.77 228.23 C 270.65 218.46 264.06 218.25 255.00 224.00
C 256.85 232.54 261.59 239.96 262.00 249.00 C 262.41 258.04 260.60 267.49 256.78 274.78 C 252.95 282.06 248.44 287.08 241.75 291.75 C 235.06 296.43 228.10 299.65 220.00 301.00 C 211.90 302.35 200.83 299.42 194.03 295.97 C 187.22 292.52 181.28 288.08 176.30 281.70 C 171.33 275.31 169.07 267.69 167.33 259.67 C 165.59 251.65 167.41 240.11 171.08 233.08 C 174.74 226.05 178.30 219.86 184.92 214.92 C 191.55 209.99 198.18 207.13 206.00 205.00 C 213.82 202.87 228.25 209.62 232.00 204.00
C 232.00 199.67 232.00 195.33 232.00 191.00
C 184.71 176.21 141.32 223.56 153.00 270.00 Z"/>
</g>
<g fill="#68E0E4" fill-opacity="1.00" stroke="None">
<path d="
M 265.00 315.00 
C 274.09 317.02 287.25 317.90 296.33 316.33 C 305.41 314.76 312.59 311.34 319.75 306.75 C 326.92 302.17 332.67 297.36 337.08 290.08 C 341.49 282.81 345.19 275.65 347.00 267.00 C 348.82 258.35 349.04 244.18 345.93 236.07 C 342.81 227.97 340.84 220.17 335.75 213.25 C 330.66 206.33 324.56 203.22 317.75 198.25 C 310.95 193.28 301.93 189.71 293.00 189.00 C 284.07 188.29 270.98 188.65 263.08 192.08 C 255.17 195.50 247.88 198.22 241.75 204.75 C 235.62 211.28 230.94 214.54 226.93 222.93 C 222.91 231.31 222.14 240.89 221.00 251.00 C 219.86 261.11 222.85 269.34 226.02 278.98 C 229.20 288.61 235.67 288.72 244.00 282.00
C 233.75 261.43 234.28 234.37 251.75 217.75 C 269.23 201.14 295.21 201.00 313.75 215.25 C 332.29 229.49 337.62 256.71 325.75 276.75 C 313.89 296.80 289.51 305.61 267.00 299.00
C 266.62 304.42 265.82 309.72 265.00 315.00 Z"/>
</g>
</svg>